<?xml version="1.0" encoding="utf-8" standalone="no"?>
<!DOCTYPE svg PUBLIC "-//W3C//DTD SVG 1.1//EN"
  "http://www.w3.org/Graphics/SVG/1.1/DTD/svg11.dtd">
<!-- Created with matplotlib (http://matplotlib.org/) -->
<svg height="345pt" version="1.1" viewBox="0 0 460 345" width="460pt" xmlns="http://www.w3.org/2000/svg" xmlns:xlink="http://www.w3.org/1999/xlink">
 <defs>
  <style type="text/css">
*{stroke-linecap:butt;stroke-linejoin:round;}
  </style>
 </defs>
 <g id="figure_1">
  <g id="patch_1">
   <path d="M 0 345.6 
L 460.8 345.6 
L 460.8 0 
L 0 0 
z
" style="fill:#ffffff;"/>
  </g>
  <g id="axes_1">
   <g id="patch_2">
    <path d="M 57.6 307.584 
L 414.72 307.584 
L 414.72 41.472 
L 57.6 41.472 
z
" style="fill:#ffffff;"/>
   </g>
   <g id="matplotlib.axis_1">
    <g id="xtick_1">
     <g id="line2d_1">
      <defs>
       <path d="M 0 0 
L 0 3.5 
" id="m8212e440ae" style="stroke:#000000;stroke-width:0.8;"/>
      </defs>
      <g>
       <use style="stroke:#000000;stroke-width:0.8;" x="101.91284" xlink:href="#m8212e440ae" y="307.584"/>
      </g>
     </g>
     <g id="text_1">
      <!-- 1995 -->
      <defs>
       <path d="M 12.40625 8.296875 
L 28.515625 8.296875 
L 28.515625 63.921875 
L 10.984375 60.40625 
L 10.984375 69.390625 
L 28.421875 72.90625 
L 38.28125 72.90625 
L 38.28125 8.296875 
L 54.390625 8.296875 
L 54.390625 0 
L 12.40625 0 
z
" id="DejaVuSans-31"/>
       <path d="M 10.984375 1.515625 
L 10.984375 10.5 
Q 14.703125 8.734375 18.5 7.8125 
Q 22.3125 6.890625 25.984375 6.890625 
Q 35.75 6.890625 40.890625 13.453125 
Q 46.046875 20.015625 46.78125 33.40625 
Q 43.953125 29.203125 39.59375 26.953125 
Q 35.25 24.703125 29.984375 24.703125 
Q 19.046875 24.703125 12.671875 31.3125 
Q 6.296875 37.9375 6.296875 49.421875 
Q 6.296875 60.640625 12.9375 67.421875 
Q 19.578125 74.21875 30.609375 74.21875 
Q 43.265625 74.21875 49.921875 64.515625 
Q 56.59375 54.828125 56.59375 36.375 
Q 56.59375 19.140625 48.40625 8.859375 
Q 40.234375 -1.421875 26.421875 -1.421875 
Q 22.703125 -1.421875 18.890625 -0.6875 
Q 15.09375 0.046875 10.984375 1.515625 
M 30.609375 32.421875 
Q 37.25 32.421875 41.125 36.953125 
Q 45.015625 41.5 45.015625 49.421875 
Q 45.015625 57.28125 41.125 61.84375 
Q 37.25 66.40625 30.609375 66.40625 
Q 23.96875 66.40625 20.09375 61.84375 
Q 16.21875 57.28125 16.21875 49.421875 
Q 16.21875 41.5 20.09375 36.953125 
Q 23.96875 32.421875 30.609375 32.421875 
" id="DejaVuSans-39"/>
       <path d="M 10.796875 72.90625 
L 49.515625 72.90625 
L 49.515625 64.59375 
L 19.828125 64.59375 
L 19.828125 46.734375 
Q 21.96875 47.46875 24.109375 47.828125 
Q 26.265625 48.1875 28.421875 48.1875 
Q 40.625 48.1875 47.75 41.5 
Q 54.890625 34.8125 54.890625 23.390625 
Q 54.890625 11.625 47.5625 5.09375 
Q 40.234375 -1.421875 26.90625 -1.421875 
Q 22.3125 -1.421875 17.546875 -0.640625 
Q 12.796875 0.140625 7.71875 1.703125 
L 7.71875 11.625 
Q 12.109375 9.234375 16.796875 8.0625 
Q 21.484375 6.890625 26.703125 6.890625 
Q 35.15625 6.890625 40.078125 11.328125 
Q 45.015625 15.765625 45.015625 23.390625 
Q 45.015625 31 40.078125 35.4375 
Q 35.15625 39.890625 26.703125 39.890625 
Q 22.75 39.890625 18.8125 39.015625 
Q 14.890625 38.140625 10.796875 36.28125 
z
" id="DejaVuSans-35"/>
      </defs>
      <g transform="translate(89.18784 322.182437)scale(0.1 -0.1)">
       <use xlink:href="#DejaVuSans-31"/>
       <use x="63.623047" xlink:href="#DejaVuSans-39"/>
       <use x="127.246094" xlink:href="#DejaVuSans-39"/>
       <use x="190.869141" xlink:href="#DejaVuSans-35"/>
      </g>
     </g>
    </g>
    <g id="xtick_2">
     <g id="line2d_2">
      <g>
       <use style="stroke:#000000;stroke-width:0.8;" x="170.719782" xlink:href="#m8212e440ae" y="307.584"/>
      </g>
     </g>
     <g id="text_2">
      <!-- 2000 -->
      <defs>
       <path d="M 19.1875 8.296875 
L 53.609375 8.296875 
L 53.609375 0 
L 7.328125 0 
L 7.328125 8.296875 
Q 12.9375 14.109375 22.625 23.890625 
Q 32.328125 33.6875 34.8125 36.53125 
Q 39.546875 41.84375 41.421875 45.53125 
Q 43.3125 49.21875 43.3125 52.78125 
Q 43.3125 58.59375 39.234375 62.25 
Q 35.15625 65.921875 28.609375 65.921875 
Q 23.96875 65.921875 18.8125 64.3125 
Q 13.671875 62.703125 7.8125 59.421875 
L 7.8125 69.390625 
Q 13.765625 71.78125 18.9375 73 
Q 24.125 74.21875 28.421875 74.21875 
Q 39.75 74.21875 46.484375 68.546875 
Q 53.21875 62.890625 53.21875 53.421875 
Q 53.21875 48.921875 51.53125 44.890625 
Q 49.859375 40.875 45.40625 35.40625 
Q 44.1875 33.984375 37.640625 27.21875 
Q 31.109375 20.453125 19.1875 8.296875 
" id="DejaVuSans-32"/>
       <path d="M 31.78125 66.40625 
Q 24.171875 66.40625 20.328125 58.90625 
Q 16.5 51.421875 16.5 36.375 
Q 16.5 21.390625 20.328125 13.890625 
Q 24.171875 6.390625 31.78125 6.390625 
Q 39.453125 6.390625 43.28125 13.890625 
Q 47.125 21.390625 47.125 36.375 
Q 47.125 51.421875 43.28125 58.90625 
Q 39.453125 66.40625 31.78125 66.40625 
M 31.78125 74.21875 
Q 44.046875 74.21875 50.515625 64.515625 
Q 56.984375 54.828125 56.984375 36.375 
Q 56.984375 17.96875 50.515625 8.265625 
Q 44.046875 -1.421875 31.78125 -1.421875 
Q 19.53125 -1.421875 13.0625 8.265625 
Q 6.59375 17.96875 6.59375 36.375 
Q 6.59375 54.828125 13.0625 64.515625 
Q 19.53125 74.21875 31.78125 74.21875 
" id="DejaVuSans-30"/>
      </defs>
      <g transform="translate(157.994782 322.182437)scale(0.1 -0.1)">
       <use xlink:href="#DejaVuSans-32"/>
       <use x="63.623047" xlink:href="#DejaVuSans-30"/>
       <use x="127.246094" xlink:href="#DejaVuSans-30"/>
       <use x="190.869141" xlink:href="#DejaVuSans-30"/>
      </g>
     </g>
    </g>
    <g id="xtick_3">
     <g id="line2d_3">
      <g>
       <use style="stroke:#000000;stroke-width:0.8;" x="239.526724" xlink:href="#m8212e440ae" y="307.584"/>
      </g>
     </g>
     <g id="text_3">
      <!-- 2005 -->
      <g transform="translate(226.801724 322.182437)scale(0.1 -0.1)">
       <use xlink:href="#DejaVuSans-32"/>
       <use x="63.623047" xlink:href="#DejaVuSans-30"/>
       <use x="127.246094" xlink:href="#DejaVuSans-30"/>
       <use x="190.869141" xlink:href="#DejaVuSans-35"/>
      </g>
     </g>
    </g>
    <g id="xtick_4">
     <g id="line2d_4">
      <g>
       <use style="stroke:#000000;stroke-width:0.8;" x="308.333665" xlink:href="#m8212e440ae" y="307.584"/>
      </g>
     </g>
     <g id="text_4">
      <!-- 2010 -->
      <g transform="translate(295.608665 322.182437)scale(0.1 -0.1)">
       <use xlink:href="#DejaVuSans-32"/>
       <use x="63.623047" xlink:href="#DejaVuSans-30"/>
       <use x="127.246094" xlink:href="#DejaVuSans-31"/>
       <use x="190.869141" xlink:href="#DejaVuSans-30"/>
      </g>
     </g>
    </g>
    <g id="xtick_5">
     <g id="line2d_5">
      <g>
       <use style="stroke:#000000;stroke-width:0.8;" x="377.140607" xlink:href="#m8212e440ae" y="307.584"/>
      </g>
     </g>
     <g id="text_5">
      <!-- 2015 -->
      <g transform="translate(364.415607 322.182437)scale(0.1 -0.1)">
       <use xlink:href="#DejaVuSans-32"/>
       <use x="63.623047" xlink:href="#DejaVuSans-30"/>
       <use x="127.246094" xlink:href="#DejaVuSans-31"/>
       <use x="190.869141" xlink:href="#DejaVuSans-35"/>
      </g>
     </g>
    </g>
    <g id="text_6">
     <!-- years -->
     <defs>
      <path d="M 32.171875 -5.078125 
Q 28.375 -14.84375 24.75 -17.8125 
Q 21.140625 -20.796875 15.09375 -20.796875 
L 7.90625 -20.796875 
L 7.90625 -13.28125 
L 13.1875 -13.28125 
Q 16.890625 -13.28125 18.9375 -11.515625 
Q 21 -9.765625 23.484375 -3.21875 
L 25.09375 0.875 
L 2.984375 54.6875 
L 12.5 54.6875 
L 29.59375 11.921875 
L 46.6875 54.6875 
L 56.203125 54.6875 
z
" id="DejaVuSans-79"/>
      <path d="M 56.203125 29.59375 
L 56.203125 25.203125 
L 14.890625 25.203125 
Q 15.484375 15.921875 20.484375 11.0625 
Q 25.484375 6.203125 34.421875 6.203125 
Q 39.59375 6.203125 44.453125 7.46875 
Q 49.3125 8.734375 54.109375 11.28125 
L 54.109375 2.78125 
Q 49.265625 0.734375 44.1875 -0.34375 
Q 39.109375 -1.421875 33.890625 -1.421875 
Q 20.796875 -1.421875 13.15625 6.1875 
Q 5.515625 13.8125 5.515625 26.8125 
Q 5.515625 40.234375 12.765625 48.109375 
Q 20.015625 56 32.328125 56 
Q 43.359375 56 49.78125 48.890625 
Q 56.203125 41.796875 56.203125 29.59375 
M 47.21875 32.234375 
Q 47.125 39.59375 43.09375 43.984375 
Q 39.0625 48.390625 32.421875 48.390625 
Q 24.90625 48.390625 20.390625 44.140625 
Q 15.875 39.890625 15.1875 32.171875 
z
" id="DejaVuSans-65"/>
      <path d="M 34.28125 27.484375 
Q 23.390625 27.484375 19.1875 25 
Q 14.984375 22.515625 14.984375 16.5 
Q 14.984375 11.71875 18.140625 8.90625 
Q 21.296875 6.109375 26.703125 6.109375 
Q 34.1875 6.109375 38.703125 11.40625 
Q 43.21875 16.703125 43.21875 25.484375 
L 43.21875 27.484375 
z
M 52.203125 31.203125 
L 52.203125 0 
L 43.21875 0 
L 43.21875 8.296875 
Q 40.140625 3.328125 35.546875 0.953125 
Q 30.953125 -1.421875 24.3125 -1.421875 
Q 15.921875 -1.421875 10.953125 3.296875 
Q 6 8.015625 6 15.921875 
Q 6 25.140625 12.171875 29.828125 
Q 18.359375 34.515625 30.609375 34.515625 
L 43.21875 34.515625 
L 43.21875 35.40625 
Q 43.21875 41.609375 39.140625 45 
Q 35.0625 48.390625 27.6875 48.390625 
Q 23 48.390625 18.546875 47.265625 
Q 14.109375 46.140625 10.015625 43.890625 
L 10.015625 52.203125 
Q 14.9375 54.109375 19.578125 55.046875 
Q 24.21875 56 28.609375 56 
Q 40.484375 56 46.34375 49.84375 
Q 52.203125 43.703125 52.203125 31.203125 
" id="DejaVuSans-61"/>
      <path d="M 41.109375 46.296875 
Q 39.59375 47.171875 37.8125 47.578125 
Q 36.03125 48 33.890625 48 
Q 26.265625 48 22.1875 43.046875 
Q 18.109375 38.09375 18.109375 28.8125 
L 18.109375 0 
L 9.078125 0 
L 9.078125 54.6875 
L 18.109375 54.6875 
L 18.109375 46.1875 
Q 20.953125 51.171875 25.484375 53.578125 
Q 30.03125 56 36.53125 56 
Q 37.453125 56 38.578125 55.875 
Q 39.703125 55.765625 41.0625 55.515625 
z
" id="DejaVuSans-72"/>
      <path d="M 44.28125 53.078125 
L 44.28125 44.578125 
Q 40.484375 46.53125 36.375 47.5 
Q 32.28125 48.484375 27.875 48.484375 
Q 21.1875 48.484375 17.84375 46.4375 
Q 14.5 44.390625 14.5 40.28125 
Q 14.5 37.15625 16.890625 35.375 
Q 19.28125 33.59375 26.515625 31.984375 
L 29.59375 31.296875 
Q 39.15625 29.25 43.1875 25.515625 
Q 47.21875 21.78125 47.21875 15.09375 
Q 47.21875 7.46875 41.1875 3.015625 
Q 35.15625 -1.421875 24.609375 -1.421875 
Q 20.21875 -1.421875 15.453125 -0.5625 
Q 10.6875 0.296875 5.421875 2 
L 5.421875 11.28125 
Q 10.40625 8.6875 15.234375 7.390625 
Q 20.0625 6.109375 24.8125 6.109375 
Q 31.15625 6.109375 34.5625 8.28125 
Q 37.984375 10.453125 37.984375 14.40625 
Q 37.984375 18.0625 35.515625 20.015625 
Q 33.0625 21.96875 24.703125 23.78125 
L 21.578125 24.515625 
Q 13.234375 26.265625 9.515625 29.90625 
Q 5.8125 33.546875 5.8125 39.890625 
Q 5.8125 47.609375 11.28125 51.796875 
Q 16.75 56 26.8125 56 
Q 31.78125 56 36.171875 55.265625 
Q 40.578125 54.546875 44.28125 53.078125 
" id="DejaVuSans-73"/>
     </defs>
     <g transform="translate(222.399844 335.860562)scale(0.1 -0.1)">
      <use xlink:href="#DejaVuSans-79"/>
      <use x="59.179688" xlink:href="#DejaVuSans-65"/>
      <use x="120.703125" xlink:href="#DejaVuSans-61"/>
      <use x="181.982422" xlink:href="#DejaVuSans-72"/>
      <use x="223.095703" xlink:href="#DejaVuSans-73"/>
     </g>
    </g>
   </g>
   <g id="matplotlib.axis_2">
    <g id="ytick_1">
     <g id="line2d_6">
      <defs>
       <path d="M 0 0 
L -3.5 0 
" id="mb6ad0294bd" style="stroke:#000000;stroke-width:0.8;"/>
      </defs>
      <g>
       <use style="stroke:#000000;stroke-width:0.8;" x="57.6" xlink:href="#mb6ad0294bd" y="265.626951"/>
      </g>
     </g>
     <g id="text_7">
      <!-- 0 -->
      <g transform="translate(44.2375 269.426169)scale(0.1 -0.1)">
       <use xlink:href="#DejaVuSans-30"/>
      </g>
     </g>
    </g>
    <g id="ytick_2">
     <g id="line2d_7">
      <g>
       <use style="stroke:#000000;stroke-width:0.8;" x="57.6" xlink:href="#mb6ad0294bd" y="214.503771"/>
      </g>
     </g>
     <g id="text_8">
      <!-- 20 -->
      <g transform="translate(37.875 218.302989)scale(0.1 -0.1)">
       <use xlink:href="#DejaVuSans-32"/>
       <use x="63.623047" xlink:href="#DejaVuSans-30"/>
      </g>
     </g>
    </g>
    <g id="ytick_3">
     <g id="line2d_8">
      <g>
       <use style="stroke:#000000;stroke-width:0.8;" x="57.6" xlink:href="#mb6ad0294bd" y="163.380591"/>
      </g>
     </g>
     <g id="text_9">
      <!-- 40 -->
      <defs>
       <path d="M 37.796875 64.3125 
L 12.890625 25.390625 
L 37.796875 25.390625 
z
M 35.203125 72.90625 
L 47.609375 72.90625 
L 47.609375 25.390625 
L 58.015625 25.390625 
L 58.015625 17.1875 
L 47.609375 17.1875 
L 47.609375 0 
L 37.796875 0 
L 37.796875 17.1875 
L 4.890625 17.1875 
L 4.890625 26.703125 
z
" id="DejaVuSans-34"/>
      </defs>
      <g transform="translate(37.875 167.179809)scale(0.1 -0.1)">
       <use xlink:href="#DejaVuSans-34"/>
       <use x="63.623047" xlink:href="#DejaVuSans-30"/>
      </g>
     </g>
    </g>
    <g id="ytick_4">
     <g id="line2d_9">
      <g>
       <use style="stroke:#000000;stroke-width:0.8;" x="57.6" xlink:href="#mb6ad0294bd" y="112.257411"/>
      </g>
     </g>
     <g id="text_10">
      <!-- 60 -->
      <defs>
       <path d="M 33.015625 40.375 
Q 26.375 40.375 22.484375 35.828125 
Q 18.609375 31.296875 18.609375 23.390625 
Q 18.609375 15.53125 22.484375 10.953125 
Q 26.375 6.390625 33.015625 6.390625 
Q 39.65625 6.390625 43.53125 10.953125 
Q 47.40625 15.53125 47.40625 23.390625 
Q 47.40625 31.296875 43.53125 35.828125 
Q 39.65625 40.375 33.015625 40.375 
M 52.59375 71.296875 
L 52.59375 62.3125 
Q 48.875 64.0625 45.09375 64.984375 
Q 41.3125 65.921875 37.59375 65.921875 
Q 27.828125 65.921875 22.671875 59.328125 
Q 17.53125 52.734375 16.796875 39.40625 
Q 19.671875 43.65625 24.015625 45.921875 
Q 28.375 48.1875 33.59375 48.1875 
Q 44.578125 48.1875 50.953125 41.515625 
Q 57.328125 34.859375 57.328125 23.390625 
Q 57.328125 12.15625 50.6875 5.359375 
Q 44.046875 -1.421875 33.015625 -1.421875 
Q 20.359375 -1.421875 13.671875 8.265625 
Q 6.984375 17.96875 6.984375 36.375 
Q 6.984375 53.65625 15.1875 63.9375 
Q 23.390625 74.21875 37.203125 74.21875 
Q 40.921875 74.21875 44.703125 73.484375 
Q 48.484375 72.75 52.59375 71.296875 
" id="DejaVuSans-36"/>
      </defs>
      <g transform="translate(37.875 116.056629)scale(0.1 -0.1)">
       <use xlink:href="#DejaVuSans-36"/>
       <use x="63.623047" xlink:href="#DejaVuSans-30"/>
      </g>
     </g>
    </g>
    <g id="ytick_5">
     <g id="line2d_10">
      <g>
       <use style="stroke:#000000;stroke-width:0.8;" x="57.6" xlink:href="#mb6ad0294bd" y="61.134231"/>
      </g>
     </g>
     <g id="text_11">
      <!-- 80 -->
      <defs>
       <path d="M 31.78125 34.625 
Q 24.75 34.625 20.71875 30.859375 
Q 16.703125 27.09375 16.703125 20.515625 
Q 16.703125 13.921875 20.71875 10.15625 
Q 24.75 6.390625 31.78125 6.390625 
Q 38.8125 6.390625 42.859375 10.171875 
Q 46.921875 13.96875 46.921875 20.515625 
Q 46.921875 27.09375 42.890625 30.859375 
Q 38.875 34.625 31.78125 34.625 
M 21.921875 38.8125 
Q 15.578125 40.375 12.03125 44.71875 
Q 8.5 49.078125 8.5 55.328125 
Q 8.5 64.0625 14.71875 69.140625 
Q 20.953125 74.21875 31.78125 74.21875 
Q 42.671875 74.21875 48.875 69.140625 
Q 55.078125 64.0625 55.078125 55.328125 
Q 55.078125 49.078125 51.53125 44.71875 
Q 48 40.375 41.703125 38.8125 
Q 48.828125 37.15625 52.796875 32.3125 
Q 56.78125 27.484375 56.78125 20.515625 
Q 56.78125 9.90625 50.3125 4.234375 
Q 43.84375 -1.421875 31.78125 -1.421875 
Q 19.734375 -1.421875 13.25 4.234375 
Q 6.78125 9.90625 6.78125 20.515625 
Q 6.78125 27.484375 10.78125 32.3125 
Q 14.796875 37.15625 21.921875 38.8125 
M 18.3125 54.390625 
Q 18.3125 48.734375 21.84375 45.5625 
Q 25.390625 42.390625 31.78125 42.390625 
Q 38.140625 42.390625 41.71875 45.5625 
Q 45.3125 48.734375 45.3125 54.390625 
Q 45.3125 60.0625 41.71875 63.234375 
Q 38.140625 66.40625 31.78125 66.40625 
Q 25.390625 66.40625 21.84375 63.234375 
Q 18.3125 60.0625 18.3125 54.390625 
" id="DejaVuSans-38"/>
      </defs>
      <g transform="translate(37.875 64.933449)scale(0.1 -0.1)">
       <use xlink:href="#DejaVuSans-38"/>
       <use x="63.623047" xlink:href="#DejaVuSans-30"/>
      </g>
     </g>
    </g>
    <g id="text_12">
     <!-- mm of sea level -->
     <defs>
      <path d="M 52 44.1875 
Q 55.375 50.25 60.0625 53.125 
Q 64.75 56 71.09375 56 
Q 79.640625 56 84.28125 50.015625 
Q 88.921875 44.046875 88.921875 33.015625 
L 88.921875 0 
L 79.890625 0 
L 79.890625 32.71875 
Q 79.890625 40.578125 77.09375 44.375 
Q 74.3125 48.1875 68.609375 48.1875 
Q 61.625 48.1875 57.5625 43.546875 
Q 53.515625 38.921875 53.515625 30.90625 
L 53.515625 0 
L 44.484375 0 
L 44.484375 32.71875 
Q 44.484375 40.625 41.703125 44.40625 
Q 38.921875 48.1875 33.109375 48.1875 
Q 26.21875 48.1875 22.15625 43.53125 
Q 18.109375 38.875 18.109375 30.90625 
L 18.109375 0 
L 9.078125 0 
L 9.078125 54.6875 
L 18.109375 54.6875 
L 18.109375 46.1875 
Q 21.1875 51.21875 25.484375 53.609375 
Q 29.78125 56 35.6875 56 
Q 41.65625 56 45.828125 52.96875 
Q 50 49.953125 52 44.1875 
" id="DejaVuSans-6d"/>
      <path id="DejaVuSans-20"/>
      <path d="M 30.609375 48.390625 
Q 23.390625 48.390625 19.1875 42.75 
Q 14.984375 37.109375 14.984375 27.296875 
Q 14.984375 17.484375 19.15625 11.84375 
Q 23.34375 6.203125 30.609375 6.203125 
Q 37.796875 6.203125 41.984375 11.859375 
Q 46.1875 17.53125 46.1875 27.296875 
Q 46.1875 37.015625 41.984375 42.703125 
Q 37.796875 48.390625 30.609375 48.390625 
M 30.609375 56 
Q 42.328125 56 49.015625 48.375 
Q 55.71875 40.765625 55.71875 27.296875 
Q 55.71875 13.875 49.015625 6.21875 
Q 42.328125 -1.421875 30.609375 -1.421875 
Q 18.84375 -1.421875 12.171875 6.21875 
Q 5.515625 13.875 5.515625 27.296875 
Q 5.515625 40.765625 12.171875 48.375 
Q 18.84375 56 30.609375 56 
" id="DejaVuSans-6f"/>
      <path d="M 37.109375 75.984375 
L 37.109375 68.5 
L 28.515625 68.5 
Q 23.6875 68.5 21.796875 66.546875 
Q 19.921875 64.59375 19.921875 59.515625 
L 19.921875 54.6875 
L 34.71875 54.6875 
L 34.71875 47.703125 
L 19.921875 47.703125 
L 19.921875 0 
L 10.890625 0 
L 10.890625 47.703125 
L 2.296875 47.703125 
L 2.296875 54.6875 
L 10.890625 54.6875 
L 10.890625 58.5 
Q 10.890625 67.625 15.140625 71.796875 
Q 19.390625 75.984375 28.609375 75.984375 
z
" id="DejaVuSans-66"/>
      <path d="M 9.421875 75.984375 
L 18.40625 75.984375 
L 18.40625 0 
L 9.421875 0 
z
" id="DejaVuSans-6c"/>
      <path d="M 2.984375 54.6875 
L 12.5 54.6875 
L 29.59375 8.796875 
L 46.6875 54.6875 
L 56.203125 54.6875 
L 35.6875 0 
L 23.484375 0 
z
" id="DejaVuSans-76"/>
     </defs>
     <g transform="translate(31.795312 214.491281)rotate(-90)scale(0.1 -0.1)">
      <use xlink:href="#DejaVuSans-6d"/>
      <use x="97.412109" xlink:href="#DejaVuSans-6d"/>
      <use x="194.824219" xlink:href="#DejaVuSans-20"/>
      <use x="226.611328" xlink:href="#DejaVuSans-6f"/>
      <use x="287.792969" xlink:href="#DejaVuSans-66"/>
      <use x="322.998047" xlink:href="#DejaVuSans-20"/>
      <use x="354.785156" xlink:href="#DejaVuSans-73"/>
      <use x="406.884766" xlink:href="#DejaVuSans-65"/>
      <use x="468.408203" xlink:href="#DejaVuSans-61"/>
      <use x="529.6875" xlink:href="#DejaVuSans-20"/>
      <use x="561.474609" xlink:href="#DejaVuSans-6c"/>
      <use x="589.257812" xlink:href="#DejaVuSans-65"/>
      <use x="650.78125" xlink:href="#DejaVuSans-76"/>
      <use x="709.960938" xlink:href="#DejaVuSans-65"/>
      <use x="771.484375" xlink:href="#DejaVuSans-6c"/>
     </g>
    </g>
   </g>
   <g id="line2d_11">
    <path clip-path="url(#pa7140f76d9)" d="M 73.832727 280.145934 
L 74.205661 284.506741 
L 74.579971 288.847099 
L 74.952904 295.488 
L 75.327214 294.261044 
L 75.700148 289.938579 
L 76.073081 275.066846 
L 76.447391 271.991786 
L 76.820325 283.113634 
L 77.194634 280.613711 
L 77.567568 273.226411 
L 78.314811 270.987216 
L 78.689121 266.777222 
L 79.062055 279.545236 
L 79.436365 284.675447 
L 79.809298 282.142294 
L 80.183608 270.003095 
L 80.556542 264.734851 
L 80.930851 269.576216 
L 81.303785 276.32192 
L 81.678095 278.042215 
L 82.425338 272.17583 
L 83.172582 271.552127 
L 83.545515 281.600388 
L 83.919825 284.389158 
L 84.292759 281.835555 
L 84.667068 267.536401 
L 85.040002 260.931286 
L 85.412936 270.332839 
L 86.160179 283.78846 
L 86.907422 272.094033 
L 87.654666 261.537096 
L 88.028975 275.138418 
L 88.401909 280.388769 
L 89.149153 259.264671 
L 89.523462 268.494961 
L 90.270706 292.883274 
L 90.643639 272.290857 
L 91.390883 261.603556 
L 91.765192 263.888762 
L 92.138126 268.686673 
L 92.512436 280.243068 
L 92.885369 277.191014 
L 93.259679 269.882955 
L 93.632613 274.995273 
L 94.006923 271.33741 
L 94.379856 274.177302 
L 95.1271 281.2732 
L 95.500033 268.911615 
L 95.874343 264.617268 
L 96.247277 269.479082 
L 96.621586 285.171342 
L 96.99452 286.145239 
L 97.36883 286.500545 
L 97.741763 266.409135 
L 98.116073 267.533845 
L 98.489007 277.242137 
L 98.863317 279.041673 
L 99.23625 276.871494 
L 99.61056 279.808521 
L 100.357803 273.643065 
L 100.730737 291.464606 
L 101.47798 278.389852 
L 101.85229 265.818662 
L 102.225224 259.021836 
L 102.599533 259.308126 
L 102.972467 255.693717 
L 103.71971 288.210615 
L 104.09402 269.218354 
L 104.841264 252.168773 
L 105.214197 272.998913 
L 105.961441 281.068707 
L 106.334374 269.003637 
L 107.081618 269.903405 
L 107.455927 268.293024 
L 107.828861 269.824164 
L 108.203171 275.501393 
L 108.576104 271.439656 
L 109.323348 266.424472 
L 109.697658 272.853212 
L 110.070591 281.62595 
L 110.444901 283.417817 
L 110.817835 277.410844 
L 111.192144 264.16994 
L 111.565078 260.987522 
L 111.939388 260.266685 
L 112.312321 276.084197 
L 112.686631 279.800852 
L 113.433875 268.024628 
L 113.806808 264.745076 
L 114.181118 267.725557 
L 114.928361 281.073819 
L 115.301295 256.199836 
L 115.674229 259.8577 
L 116.421472 278.16491 
L 116.795782 283.277228 
L 117.168715 276.679782 
L 117.915959 252.092089 
L 118.290268 264.783418 
L 118.663202 266.194418 
L 119.037512 270.792948 
L 119.410445 273.198294 
L 120.157689 254.162577 
L 120.531999 258.643524 
L 120.904932 266.268546 
L 121.279242 267.500615 
L 121.652176 263.142364 
L 122.399419 246.509437 
L 122.773729 253.382949 
L 123.520972 261.943525 
L 123.893906 260.675671 
L 124.268216 261.005415 
L 124.641149 258.162966 
L 125.015459 261.445074 
L 125.761326 270.524551 
L 126.135636 268.599763 
L 126.882879 265.402009 
L 127.255813 256.570479 
L 127.630123 262.255377 
L 128.003056 272.413553 
L 128.377366 264.149491 
L 128.7503 252.999525 
L 129.12461 256.061804 
L 129.871853 267.370251 
L 130.244787 278.180247 
L 130.619096 262.922534 
L 131.36634 257.756537 
L 131.739273 261.984424 
L 132.113583 270.493877 
L 132.486517 268.829818 
L 133.23376 247.225162 
L 133.60807 256.233066 
L 133.981003 258.888915 
L 134.355313 248.127486 
L 134.728247 260.5632 
L 135.102557 246.233372 
L 135.848424 236.857381 
L 136.222734 239.771402 
L 136.595667 245.80905 
L 136.969977 244.193557 
L 137.342911 237.187126 
L 138.090154 237.118109 
L 138.464464 232.660168 
L 138.837397 238.815399 
L 139.211707 240.113928 
L 139.584641 225.998818 
L 140.331884 227.619422 
L 141.453437 242.659862 
L 141.826371 236.780696 
L 142.200681 227.762567 
L 142.573614 236.985189 
L 142.947924 238.194252 
L 143.320858 253.181012 
L 143.695167 243.038173 
L 144.442411 228.585651 
L 144.815345 230.75583 
L 145.189654 237.544988 
L 145.562588 247.51912 
L 145.935522 239.577134 
L 146.309831 234.891695 
L 146.682765 221.53832 
L 147.057075 219.869148 
L 147.430008 233.800215 
L 147.804318 231.79363 
L 148.177252 238.782169 
L 148.924495 235.142198 
L 149.298805 233.88968 
L 149.671738 244.707345 
L 150.046048 248.786975 
L 150.793292 245.591776 
L 151.540535 246.596347 
L 151.913469 253.751036 
L 152.287778 249.837556 
L 152.660712 248.789531 
L 153.035022 242.232983 
L 153.407955 237.744368 
L 153.782265 237.895182 
L 154.529509 248.285968 
L 154.902442 246.348399 
L 155.275376 231.157146 
L 155.649686 246.105564 
L 156.022619 222.537778 
L 156.769863 248.048245 
L 157.144172 242.710985 
L 157.517106 227.857145 
L 158.264349 239.615477 
L 158.638659 239.807189 
L 159.011593 246.103008 
L 159.385902 238.081781 
L 159.758836 234.549169 
L 160.133146 226.144519 
L 160.880389 241.84956 
L 161.627633 239.025004 
L 162.000566 233.212298 
L 162.374876 236.504631 
L 162.74781 231.016558 
L 163.122119 246.752273 
L 163.495053 250.282328 
L 163.869363 242.690536 
L 164.242296 228.028408 
L 164.616606 225.201296 
L 164.98954 232.606489 
L 165.362473 245.35661 
L 165.736783 234.768999 
L 166.484027 232.956682 
L 166.85696 224.332202 
L 167.23127 229.242583 
L 167.604204 226.65575 
L 167.978513 236.402385 
L 168.351447 231.134141 
L 168.725757 222.049552 
L 169.09869 224.490684 
L 169.473 230.656139 
L 170.220244 230.18325 
L 170.593177 220.968297 
L 170.967487 220.48007 
L 171.340421 219.69533 
L 171.71473 224.10726 
L 172.087664 237.930968 
L 172.461974 235.408039 
L 172.834907 220.175887 
L 173.209217 217.29254 
L 173.582151 218.652417 
L 173.95646 215.884096 
L 174.703704 228.726239 
L 175.076637 226.760553 
L 175.449571 229.02531 
L 175.823881 225.860785 
L 176.196814 229.020198 
L 176.571124 235.778682 
L 176.944058 239.244834 
L 177.318368 230.571786 
L 178.065611 221.093548 
L 178.812854 244.893945 
L 179.185788 229.020198 
L 179.560098 219.677436 
L 179.933031 223.861869 
L 180.307341 224.753968 
L 180.680275 219.194322 
L 181.054585 220.671782 
L 181.427518 218.787893 
L 182.549071 210.649083 
L 182.922005 221.223913 
L 183.296315 219.60842 
L 183.669248 226.834682 
L 184.043558 220.278134 
L 184.416492 208.895558 
L 184.790802 219.772014 
L 185.536669 226.837238 
L 185.910979 216.924453 
L 186.283912 214.820734 
L 186.658222 204.031187 
L 187.031156 203.302682 
L 187.405465 219.651875 
L 188.152709 214.703151 
L 188.525642 203.225997 
L 188.899952 204.404386 
L 189.272886 213.384173 
L 190.020129 224.232512 
L 190.394439 220.007181 
L 190.767372 213.054428 
L 191.141682 200.496019 
L 191.514616 199.253726 
L 191.888926 205.807718 
L 192.261859 221.259699 
L 192.636169 206.927315 
L 193.009103 206.577122 
L 193.383412 205.316935 
L 194.130656 209.097494 
L 194.503589 208.013683 
L 194.877899 201.388119 
L 195.250833 203.652876 
L 195.623766 207.591917 
L 195.998076 198.985329 
L 196.74532 211.807023 
L 197.118253 211.564188 
L 197.492563 209.225302 
L 197.865497 203.867593 
L 198.239806 201.779211 
L 198.61274 218.629411 
L 198.98705 215.679604 
L 199.359983 196.80237 
L 199.734293 189.535209 
L 200.107227 193.632732 
L 200.85447 220.099203 
L 201.601714 206.587346 
L 201.976023 191.017782 
L 202.348957 199.954114 
L 202.723267 200.979133 
L 203.0962 213.742035 
L 203.843444 199.708722 
L 204.217753 199.228164 
L 204.590687 207.024449 
L 204.964997 198.228706 
L 205.33793 200.15605 
L 205.710864 198.824291 
L 206.458107 180.839157 
L 206.832417 180.854494 
L 207.205351 197.704694 
L 207.579661 206.919647 
L 207.952594 201.173401 
L 208.326904 186.235208 
L 208.699838 190.823514 
L 209.074147 186.920259 
L 209.447081 186.046052 
L 209.821391 204.884944 
L 210.194324 199.90299 
L 210.568634 179.2799 
L 210.941568 187.807246 
L 211.688811 196.32948 
L 212.063121 203.645207 
L 212.436055 204.486183 
L 212.810364 182.260381 
L 213.183298 176.169054 
L 213.557608 177.286096 
L 213.930541 205.033201 
L 214.677785 192.523359 
L 215.050718 184.348763 
L 215.425028 182.510885 
L 215.797962 194.23343 
L 216.172271 198.269605 
L 216.545205 198.7655 
L 216.919515 198.210813 
L 217.292449 187.63854 
L 217.666758 184.466346 
L 218.039692 201.158064 
L 218.414002 200.337537 
L 218.786935 204.08231 
L 219.161245 198.877971 
L 219.534179 184.489352 
L 219.908488 185.601281 
L 220.281422 190.470764 
L 220.655732 206.193698 
L 221.028665 201.109497 
L 221.402975 184.640165 
L 221.775909 184.236292 
L 222.150219 188.05775 
L 222.523152 187.945279 
L 222.897462 198.47921 
L 223.270396 195.940944 
L 223.644705 194.430254 
L 224.017639 187.382924 
L 224.764882 187.80469 
L 225.137816 196.41639 
L 225.512126 200.907561 
L 226.259369 173.275482 
L 226.632303 173.819944 
L 227.006613 183.829863 
L 227.379546 213.3126 
L 227.753856 186.403915 
L 228.12679 186.375797 
L 228.501099 178.472153 
L 228.874033 180.987414 
L 229.248343 185.885014 
L 229.621276 193.070377 
L 229.995586 177.899574 
L 230.36852 192.106705 
L 230.742829 187.009724 
L 231.115763 193.366892 
L 231.863006 198.893308 
L 232.237316 190.749385 
L 232.61025 173.40329 
L 232.98456 171.567968 
L 233.731803 191.247836 
L 234.104737 188.354264 
L 234.85198 178.896476 
L 235.224914 166.42242 
L 235.599223 165.755262 
L 235.972157 190.619021 
L 236.346467 186.329786 
L 236.7194 186.994387 
L 237.09371 182.109568 
L 237.466644 174.019324 
L 237.840954 174.336288 
L 238.213887 190.082228 
L 238.588197 187.789353 
L 238.961131 179.778351 
L 239.33544 156.913508 
L 239.708374 173.226915 
L 240.082684 180.580985 
L 240.455617 180.389273 
L 240.829927 183.362086 
L 241.577171 167.802746 
L 241.950104 153.820556 
L 242.324414 159.786631 
L 242.697348 189.862398 
L 243.071657 188.039856 
L 243.444591 166.30228 
L 243.818901 174.857745 
L 244.191834 170.31545 
L 244.566144 167.736286 
L 244.939078 176.312199 
L 245.312011 179.011503 
L 245.686321 174.170138 
L 246.059255 162.754332 
L 246.433564 162.746663 
L 246.806498 167.552242 
L 247.180808 178.760999 
L 247.553741 170.026604 
L 247.928051 177.316769 
L 248.300985 172.250462 
L 248.675295 162.503828 
L 249.048228 172.44473 
L 250.169781 171.60631 
L 250.542715 167.769516 
L 250.917025 166.614132 
L 251.289958 161.711419 
L 251.664268 164.126989 
L 252.037202 165.325828 
L 252.411512 167.5139 
L 252.784445 155.783686 
L 253.158755 157.856731 
L 253.531689 176.036134 
L 253.905998 180.859606 
L 255.026175 163.858592 
L 255.399109 165.305378 
L 255.773419 164.075866 
L 256.146352 186.301668 
L 256.520662 183.262395 
L 256.893596 170.931484 
L 257.267906 165.607005 
L 257.640839 173.750928 
L 258.015149 179.290124 
L 258.762392 164.79159 
L 259.135326 169.364559 
L 259.509636 160.724741 
L 259.882569 156.680898 
L 260.629813 170.430477 
L 261.377056 157.889961 
L 261.751366 167.598253 
L 262.124299 164.203674 
L 262.498609 167.398873 
L 262.871543 169.41057 
L 263.245853 167.168818 
L 263.993096 156.639999 
L 264.36603 155.993291 
L 265.486207 163.784464 
L 265.860516 168.331871 
L 266.23345 149.595225 
L 266.60776 157.680356 
L 266.980693 171.432491 
L 267.727937 183.842643 
L 268.102247 164.203674 
L 268.47518 162.557507 
L 268.84949 167.728617 
L 269.222424 163.835587 
L 269.596733 179.517622 
L 269.969667 176.698179 
L 270.71691 150.4771 
L 271.09122 158.851077 
L 271.464154 169.822111 
L 271.838463 184.865107 
L 272.211397 169.832336 
L 272.585707 159.438993 
L 272.958641 160.141937 
L 273.33295 163.725672 
L 274.080194 178.144965 
L 274.826061 168.945349 
L 275.200371 164.970522 
L 275.573304 163.664324 
L 275.947614 180.409722 
L 276.320548 187.73823 
L 277.067791 163.544185 
L 277.442101 160.374548 
L 278.189344 173.23714 
L 278.562278 176.953795 
L 279.309521 150.165249 
L 280.056765 158.590349 
L 280.431074 179.520179 
L 280.804008 179.796244 
L 281.551251 154.249991 
L 281.925561 155.10886 
L 282.298495 175.926219 
L 282.672805 173.275482 
L 283.045738 177.58261 
L 283.420048 164.55898 
L 283.792982 156.632331 
L 284.167291 157.199798 
L 284.540225 165.2108 
L 284.913159 168.076255 
L 285.287468 177.188962 
L 286.034712 143.933333 
L 286.407645 145.707307 
L 286.781955 152.902895 
L 287.154889 156.908396 
L 288.276442 147.928609 
L 288.649376 151.931554 
L 289.023685 161.322883 
L 289.770929 165.609561 
L 290.143862 158.375631 
L 290.518172 159.076019 
L 290.891106 154.339456 
L 291.638349 164.091203 
L 292.385592 155.372144 
L 292.759902 147.767571 
L 293.132836 153.582833 
L 293.507146 149.661685 
L 293.880079 161.005919 
L 294.254389 162.823348 
L 294.627323 159.781519 
L 295.000256 150.321174 
L 295.374566 146.04472 
L 295.7475 163.485393 
L 296.121809 171.013281 
L 296.494743 154.945266 
L 296.869053 145.983372 
L 297.241986 143.135811 
L 297.616296 143.424657 
L 297.98923 152.62683 
L 298.36354 158.922649 
L 298.736473 154.638527 
L 299.483717 136.078256 
L 300.23096 162.44248 
L 300.978203 150.298169 
L 301.352513 148.838602 
L 301.725447 151.461221 
L 302.099756 149.725589 
L 302.47269 144.245184 
L 302.847 158.012657 
L 303.219933 155.07563 
L 303.594243 140.237127 
L 303.967177 136.487242 
L 304.341487 135.59003 
L 304.71442 144.503356 
L 305.08873 149.137673 
L 305.461664 143.634262 
L 305.834597 131.704668 
L 306.208907 126.029995 
L 306.581841 140.191116 
L 306.95615 143.654712 
L 307.329084 149.247587 
L 307.703394 143.404208 
L 308.076327 129.432243 
L 308.823571 145.988485 
L 309.197881 152.230625 
L 309.570814 160.903673 
L 310.318058 127.658269 
L 310.692367 123.522403 
L 311.065301 146.054945 
L 311.439611 152.107929 
L 311.812544 150.4771 
L 312.186854 140.513192 
L 312.559788 134.866637 
L 312.934098 131.569192 
L 313.307031 143.859204 
L 313.681341 143.222721 
L 314.054275 145.354557 
L 314.428584 133.780269 
L 314.801518 126.543783 
L 315.174452 128.977247 
L 315.548761 142.714045 
L 315.921695 143.524347 
L 316.296005 145.081048 
L 316.668938 149.043095 
L 317.043248 133.220471 
L 317.416182 148.956185 
L 318.163425 158.010101 
L 318.537735 160.085702 
L 318.910668 154.717768 
L 319.284978 137.289876 
L 319.657912 141.285152 
L 320.032222 152.238294 
L 320.779465 164.645889 
L 321.152399 149.262924 
L 321.526708 146.228764 
L 321.899642 147.077409 
L 322.646885 160.870442 
L 323.021195 162.613743 
L 323.394129 151.463777 
L 323.768439 144.97369 
L 324.141372 145.009476 
L 324.515682 159.699722 
L 324.888616 166.777726 
L 325.261549 164.612659 
L 325.635859 152.629386 
L 326.008793 149.546658 
L 326.383102 149.884071 
L 326.756036 163.891822 
L 327.503279 155.29546 
L 327.877589 148.795147 
L 328.250523 136.400332 
L 328.624833 135.753624 
L 328.997766 150.060446 
L 329.372076 151.571136 
L 329.74501 147.931166 
L 330.119319 142.131241 
L 330.492253 126.208926 
L 331.239496 142.361295 
L 331.613806 146.318229 
L 331.98674 147.274233 
L 332.361049 140.513192 
L 332.733983 128.614272 
L 333.108293 127.918997 
L 333.481226 145.824891 
L 333.855536 153.242864 
L 334.22847 151.870207 
L 334.60278 130.211871 
L 334.975713 129.22775 
L 335.348647 138.767336 
L 335.722957 140.234571 
L 336.09589 131.819695 
L 336.4702 130.301337 
L 336.843134 118.121239 
L 337.590377 123.440606 
L 338.33762 143.999793 
L 339.084864 116.232238 
L 339.459174 124.299476 
L 340.206417 133.049208 
L 340.579351 134.414197 
L 340.95366 124.480963 
L 341.326594 122.857802 
L 341.700904 118.859969 
L 342.073837 112.150052 
L 342.448147 128.483908 
L 342.821081 125.692582 
L 343.19539 108.372049 
L 343.568324 101.940753 
L 344.315568 112.042693 
L 344.689877 131.538518 
L 345.062811 121.27554 
L 345.435745 117.778714 
L 345.810054 100.205121 
L 346.182988 103.691722 
L 346.930231 121.224416 
L 347.304541 118.417754 
L 347.677475 113.785994 
L 348.051784 104.310312 
L 348.424718 102.572124 
L 348.799028 107.454388 
L 349.171961 115.726118 
L 349.546271 107.441607 
L 349.919205 107.104194 
L 350.293515 100.936182 
L 350.666448 101.86918 
L 351.413692 116.935182 
L 351.788001 117.750596 
L 352.160935 102.745943 
L 352.535245 96.043694 
L 353.655422 124.547423 
L 354.029732 117.686692 
L 354.402665 108.38483 
L 354.776975 109.512096 
L 355.149909 115.312021 
L 355.522842 118.164694 
L 355.897152 125.370506 
L 356.270086 117.111557 
L 357.017329 108.724799 
L 357.391639 106.061281 
L 357.764572 114.302338 
L 358.138882 132.361601 
L 358.511816 124.120545 
L 358.886125 112.150052 
L 359.633369 111.63882 
L 360.006302 124.192117 
L 360.380612 125.822946 
L 360.753546 108.71713 
L 361.127856 108.244241 
L 361.875099 103.206052 
L 362.248033 111.536574 
L 362.622342 124.88228 
L 363.369586 104.739747 
L 363.742519 101.452527 
L 364.116829 106.559732 
L 364.489763 118.090565 
L 365.60994 96.933237 
L 365.98425 92.955854 
L 366.357183 105.174294 
L 366.731493 112.014576 
L 367.104427 113.82178 
L 367.478736 107.784132 
L 367.85167 107.316355 
L 368.22598 107.569415 
L 368.598913 111.390873 
L 368.973223 110.496217 
L 369.346157 114.757334 
L 369.720467 110.8004 
L 370.0934 91.882267 
L 370.46771 93.134785 
L 370.840644 98.334013 
L 371.214953 111.050904 
L 371.587887 108.292808 
L 372.33513 86.199926 
L 373.082374 97.227196 
L 373.456683 117.26237 
L 373.829617 110.309617 
L 374.203927 93.387845 
L 374.57686 89.678858 
L 374.95117 98.525724 
L 375.324104 99.208219 
L 375.697037 113.561052 
L 376.071347 107.871042 
L 376.444281 84.50008 
L 376.818591 85.003643 
L 377.191524 94.883198 
L 377.565834 99.668328 
L 377.938768 106.595518 
L 378.313077 90.126186 
L 378.686011 87.258176 
L 379.060321 73.907357 
L 379.433254 74.4646 
L 379.807564 91.273901 
L 380.180498 97.053377 
L 380.554808 84.139662 
L 380.927741 80.469017 
L 381.302051 72.703406 
L 381.674985 73.426799 
L 382.049294 90.834242 
L 382.422228 92.986528 
L 382.796538 82.11774 
L 383.169471 75.52285 
L 383.543781 65.589616 
L 383.916715 66.428036 
L 384.291025 79.244617 
L 384.663958 79.364757 
L 385.038268 74.648643 
L 385.411202 67.499067 
L 386.158445 62.667926 
L 386.531379 66.044612 
L 386.905688 73.191633 
L 387.278622 70.875753 
L 387.652932 58.902704 
L 388.025865 54.421757 
L 388.400175 54.490773 
L 388.773109 67.593644 
L 389.147418 75.683888 
L 389.520352 63.662272 
L 389.894662 58.255996 
L 390.267595 62.59891 
L 391.014839 81.332999 
L 391.389149 75.374592 
L 391.762082 59.15832 
L 392.136392 61.532991 
L 392.509326 54.876753 
L 393.256569 66.415255 
L 393.630879 73.355227 
L 394.003812 61.366841 
L 394.378122 58.077064 
L 394.751056 53.568 
L 395.123989 63.567694 
L 395.498299 78.214485 
L 395.871233 78.958327 
L 396.245543 75.118977 
L 396.618476 62.517113 
L 396.992786 58.478381 
L 397.36572 57.346003 
L 397.740029 72.785203 
L 398.112963 74.59752 
L 398.487273 70.241825 
L 398.487273 70.241825 
" style="fill:none;stroke:#1f77b4;stroke-linecap:square;stroke-width:1.5;"/>
   </g>
   <g id="patch_3">
    <path d="M 57.6 307.584 
L 57.6 41.472 
" style="fill:none;stroke:#000000;stroke-linecap:square;stroke-linejoin:miter;stroke-width:0.8;"/>
   </g>
   <g id="patch_4">
    <path d="M 414.72 307.584 
L 414.72 41.472 
" style="fill:none;stroke:#000000;stroke-linecap:square;stroke-linejoin:miter;stroke-width:0.8;"/>
   </g>
   <g id="patch_5">
    <path d="M 57.6 307.584 
L 414.72 307.584 
" style="fill:none;stroke:#000000;stroke-linecap:square;stroke-linejoin:miter;stroke-width:0.8;"/>
   </g>
   <g id="patch_6">
    <path d="M 57.6 41.472 
L 414.72 41.472 
" style="fill:none;stroke:#000000;stroke-linecap:square;stroke-linejoin:miter;stroke-width:0.8;"/>
   </g>
   <g id="text_13">
    <!-- Global mean sea level from CU sea level Research group -->
    <defs>
     <path d="M 59.515625 10.40625 
L 59.515625 29.984375 
L 43.40625 29.984375 
L 43.40625 38.09375 
L 69.28125 38.09375 
L 69.28125 6.78125 
Q 63.578125 2.734375 56.6875 0.65625 
Q 49.8125 -1.421875 42 -1.421875 
Q 24.90625 -1.421875 15.25 8.5625 
Q 5.609375 18.5625 5.609375 36.375 
Q 5.609375 54.25 15.25 64.234375 
Q 24.90625 74.21875 42 74.21875 
Q 49.125 74.21875 55.546875 72.453125 
Q 61.96875 70.703125 67.390625 67.28125 
L 67.390625 56.78125 
Q 61.921875 61.421875 55.765625 63.765625 
Q 49.609375 66.109375 42.828125 66.109375 
Q 29.4375 66.109375 22.71875 58.640625 
Q 16.015625 51.171875 16.015625 36.375 
Q 16.015625 21.625 22.71875 14.15625 
Q 29.4375 6.6875 42.828125 6.6875 
Q 48.046875 6.6875 52.140625 7.59375 
Q 56.25 8.5 59.515625 10.40625 
" id="DejaVuSans-47"/>
     <path d="M 48.6875 27.296875 
Q 48.6875 37.203125 44.609375 42.84375 
Q 40.53125 48.484375 33.40625 48.484375 
Q 26.265625 48.484375 22.1875 42.84375 
Q 18.109375 37.203125 18.109375 27.296875 
Q 18.109375 17.390625 22.1875 11.75 
Q 26.265625 6.109375 33.40625 6.109375 
Q 40.53125 6.109375 44.609375 11.75 
Q 48.6875 17.390625 48.6875 27.296875 
M 18.109375 46.390625 
Q 20.953125 51.265625 25.265625 53.625 
Q 29.59375 56 35.59375 56 
Q 45.5625 56 51.78125 48.09375 
Q 58.015625 40.1875 58.015625 27.296875 
Q 58.015625 14.40625 51.78125 6.484375 
Q 45.5625 -1.421875 35.59375 -1.421875 
Q 29.59375 -1.421875 25.265625 0.953125 
Q 20.953125 3.328125 18.109375 8.203125 
L 18.109375 0 
L 9.078125 0 
L 9.078125 75.984375 
L 18.109375 75.984375 
z
" id="DejaVuSans-62"/>
     <path d="M 54.890625 33.015625 
L 54.890625 0 
L 45.90625 0 
L 45.90625 32.71875 
Q 45.90625 40.484375 42.875 44.328125 
Q 39.84375 48.1875 33.796875 48.1875 
Q 26.515625 48.1875 22.3125 43.546875 
Q 18.109375 38.921875 18.109375 30.90625 
L 18.109375 0 
L 9.078125 0 
L 9.078125 54.6875 
L 18.109375 54.6875 
L 18.109375 46.1875 
Q 21.34375 51.125 25.703125 53.5625 
Q 30.078125 56 35.796875 56 
Q 45.21875 56 50.046875 50.171875 
Q 54.890625 44.34375 54.890625 33.015625 
" id="DejaVuSans-6e"/>
     <path d="M 64.40625 67.28125 
L 64.40625 56.890625 
Q 59.421875 61.53125 53.78125 63.8125 
Q 48.140625 66.109375 41.796875 66.109375 
Q 29.296875 66.109375 22.65625 58.46875 
Q 16.015625 50.828125 16.015625 36.375 
Q 16.015625 21.96875 22.65625 14.328125 
Q 29.296875 6.6875 41.796875 6.6875 
Q 48.140625 6.6875 53.78125 8.984375 
Q 59.421875 11.28125 64.40625 15.921875 
L 64.40625 5.609375 
Q 59.234375 2.09375 53.4375 0.328125 
Q 47.65625 -1.421875 41.21875 -1.421875 
Q 24.65625 -1.421875 15.125 8.703125 
Q 5.609375 18.84375 5.609375 36.375 
Q 5.609375 53.953125 15.125 64.078125 
Q 24.65625 74.21875 41.21875 74.21875 
Q 47.75 74.21875 53.53125 72.484375 
Q 59.328125 70.75 64.40625 67.28125 
" id="DejaVuSans-43"/>
     <path d="M 8.6875 72.90625 
L 18.609375 72.90625 
L 18.609375 28.609375 
Q 18.609375 16.890625 22.84375 11.734375 
Q 27.09375 6.59375 36.625 6.59375 
Q 46.09375 6.59375 50.34375 11.734375 
Q 54.59375 16.890625 54.59375 28.609375 
L 54.59375 72.90625 
L 64.5 72.90625 
L 64.5 27.390625 
Q 64.5 13.140625 57.4375 5.859375 
Q 50.390625 -1.421875 36.625 -1.421875 
Q 22.796875 -1.421875 15.734375 5.859375 
Q 8.6875 13.140625 8.6875 27.390625 
z
" id="DejaVuSans-55"/>
     <path d="M 44.390625 34.1875 
Q 47.5625 33.109375 50.5625 29.59375 
Q 53.5625 26.078125 56.59375 19.921875 
L 66.609375 0 
L 56 0 
L 46.6875 18.703125 
Q 43.0625 26.03125 39.671875 28.421875 
Q 36.28125 30.8125 30.421875 30.8125 
L 19.671875 30.8125 
L 19.671875 0 
L 9.8125 0 
L 9.8125 72.90625 
L 32.078125 72.90625 
Q 44.578125 72.90625 50.734375 67.671875 
Q 56.890625 62.453125 56.890625 51.90625 
Q 56.890625 45.015625 53.6875 40.46875 
Q 50.484375 35.9375 44.390625 34.1875 
M 19.671875 64.796875 
L 19.671875 38.921875 
L 32.078125 38.921875 
Q 39.203125 38.921875 42.84375 42.21875 
Q 46.484375 45.515625 46.484375 51.90625 
Q 46.484375 58.296875 42.84375 61.546875 
Q 39.203125 64.796875 32.078125 64.796875 
z
" id="DejaVuSans-52"/>
     <path d="M 48.78125 52.59375 
L 48.78125 44.1875 
Q 44.96875 46.296875 41.140625 47.34375 
Q 37.3125 48.390625 33.40625 48.390625 
Q 24.65625 48.390625 19.8125 42.84375 
Q 14.984375 37.3125 14.984375 27.296875 
Q 14.984375 17.28125 19.8125 11.734375 
Q 24.65625 6.203125 33.40625 6.203125 
Q 37.3125 6.203125 41.140625 7.25 
Q 44.96875 8.296875 48.78125 10.40625 
L 48.78125 2.09375 
Q 45.015625 0.34375 40.984375 -0.53125 
Q 36.96875 -1.421875 32.421875 -1.421875 
Q 20.0625 -1.421875 12.78125 6.34375 
Q 5.515625 14.109375 5.515625 27.296875 
Q 5.515625 40.671875 12.859375 48.328125 
Q 20.21875 56 33.015625 56 
Q 37.15625 56 41.109375 55.140625 
Q 45.0625 54.296875 48.78125 52.59375 
" id="DejaVuSans-63"/>
     <path d="M 54.890625 33.015625 
L 54.890625 0 
L 45.90625 0 
L 45.90625 32.71875 
Q 45.90625 40.484375 42.875 44.328125 
Q 39.84375 48.1875 33.796875 48.1875 
Q 26.515625 48.1875 22.3125 43.546875 
Q 18.109375 38.921875 18.109375 30.90625 
L 18.109375 0 
L 9.078125 0 
L 9.078125 75.984375 
L 18.109375 75.984375 
L 18.109375 46.1875 
Q 21.34375 51.125 25.703125 53.5625 
Q 30.078125 56 35.796875 56 
Q 45.21875 56 50.046875 50.171875 
Q 54.890625 44.34375 54.890625 33.015625 
" id="DejaVuSans-68"/>
     <path d="M 45.40625 27.984375 
Q 45.40625 37.75 41.375 43.109375 
Q 37.359375 48.484375 30.078125 48.484375 
Q 22.859375 48.484375 18.828125 43.109375 
Q 14.796875 37.75 14.796875 27.984375 
Q 14.796875 18.265625 18.828125 12.890625 
Q 22.859375 7.515625 30.078125 7.515625 
Q 37.359375 7.515625 41.375 12.890625 
Q 45.40625 18.265625 45.40625 27.984375 
M 54.390625 6.78125 
Q 54.390625 -7.171875 48.1875 -13.984375 
Q 42 -20.796875 29.203125 -20.796875 
Q 24.46875 -20.796875 20.265625 -20.09375 
Q 16.0625 -19.390625 12.109375 -17.921875 
L 12.109375 -9.1875 
Q 16.0625 -11.328125 19.921875 -12.34375 
Q 23.78125 -13.375 27.78125 -13.375 
Q 36.625 -13.375 41.015625 -8.765625 
Q 45.40625 -4.15625 45.40625 5.171875 
L 45.40625 9.625 
Q 42.625 4.78125 38.28125 2.390625 
Q 33.9375 0 27.875 0 
Q 17.828125 0 11.671875 7.65625 
Q 5.515625 15.328125 5.515625 27.984375 
Q 5.515625 40.671875 11.671875 48.328125 
Q 17.828125 56 27.875 56 
Q 33.9375 56 38.28125 53.609375 
Q 42.625 51.21875 45.40625 46.390625 
L 45.40625 54.6875 
L 54.390625 54.6875 
z
" id="DejaVuSans-67"/>
     <path d="M 8.5 21.578125 
L 8.5 54.6875 
L 17.484375 54.6875 
L 17.484375 21.921875 
Q 17.484375 14.15625 20.5 10.265625 
Q 23.53125 6.390625 29.59375 6.390625 
Q 36.859375 6.390625 41.078125 11.03125 
Q 45.3125 15.671875 45.3125 23.6875 
L 45.3125 54.6875 
L 54.296875 54.6875 
L 54.296875 0 
L 45.3125 0 
L 45.3125 8.40625 
Q 42.046875 3.421875 37.71875 1 
Q 33.40625 -1.421875 27.6875 -1.421875 
Q 18.265625 -1.421875 13.375 4.4375 
Q 8.5 10.296875 8.5 21.578125 
M 31.109375 56 
z
" id="DejaVuSans-75"/>
     <path d="M 18.109375 8.203125 
L 18.109375 -20.796875 
L 9.078125 -20.796875 
L 9.078125 54.6875 
L 18.109375 54.6875 
L 18.109375 46.390625 
Q 20.953125 51.265625 25.265625 53.625 
Q 29.59375 56 35.59375 56 
Q 45.5625 56 51.78125 48.09375 
Q 58.015625 40.1875 58.015625 27.296875 
Q 58.015625 14.40625 51.78125 6.484375 
Q 45.5625 -1.421875 35.59375 -1.421875 
Q 29.59375 -1.421875 25.265625 0.953125 
Q 20.953125 3.328125 18.109375 8.203125 
M 48.6875 27.296875 
Q 48.6875 37.203125 44.609375 42.84375 
Q 40.53125 48.484375 33.40625 48.484375 
Q 26.265625 48.484375 22.1875 42.84375 
Q 18.109375 37.203125 18.109375 27.296875 
Q 18.109375 17.390625 22.1875 11.75 
Q 26.265625 6.109375 33.40625 6.109375 
Q 40.53125 6.109375 44.609375 11.75 
Q 48.6875 17.390625 48.6875 27.296875 
" id="DejaVuSans-70"/>
    </defs>
    <g transform="translate(65.168438 35.472)scale(0.12 -0.12)">
     <use xlink:href="#DejaVuSans-47"/>
     <use x="77.490234" xlink:href="#DejaVuSans-6c"/>
     <use x="105.273438" xlink:href="#DejaVuSans-6f"/>
     <use x="166.455078" xlink:href="#DejaVuSans-62"/>
     <use x="229.931641" xlink:href="#DejaVuSans-61"/>
     <use x="291.210938" xlink:href="#DejaVuSans-6c"/>
     <use x="318.994141" xlink:href="#DejaVuSans-20"/>
     <use x="350.78125" xlink:href="#DejaVuSans-6d"/>
     <use x="448.193359" xlink:href="#DejaVuSans-65"/>
     <use x="509.716797" xlink:href="#DejaVuSans-61"/>
     <use x="570.996094" xlink:href="#DejaVuSans-6e"/>
     <use x="634.375" xlink:href="#DejaVuSans-20"/>
     <use x="666.162109" xlink:href="#DejaVuSans-73"/>
     <use x="718.261719" xlink:href="#DejaVuSans-65"/>
     <use x="779.785156" xlink:href="#DejaVuSans-61"/>
     <use x="841.064453" xlink:href="#DejaVuSans-20"/>
     <use x="872.851562" xlink:href="#DejaVuSans-6c"/>
     <use x="900.634766" xlink:href="#DejaVuSans-65"/>
     <use x="962.158203" xlink:href="#DejaVuSans-76"/>
     <use x="1021.337891" xlink:href="#DejaVuSans-65"/>
     <use x="1082.861328" xlink:href="#DejaVuSans-6c"/>
     <use x="1110.644531" xlink:href="#DejaVuSans-20"/>
     <use x="1142.431641" xlink:href="#DejaVuSans-66"/>
     <use x="1177.636719" xlink:href="#DejaVuSans-72"/>
     <use x="1218.71875" xlink:href="#DejaVuSans-6f"/>
     <use x="1279.900391" xlink:href="#DejaVuSans-6d"/>
     <use x="1377.3125" xlink:href="#DejaVuSans-20"/>
     <use x="1409.099609" xlink:href="#DejaVuSans-43"/>
     <use x="1478.923828" xlink:href="#DejaVuSans-55"/>
     <use x="1552.117188" xlink:href="#DejaVuSans-20"/>
     <use x="1583.904297" xlink:href="#DejaVuSans-73"/>
     <use x="1636.003906" xlink:href="#DejaVuSans-65"/>
     <use x="1697.527344" xlink:href="#DejaVuSans-61"/>
     <use x="1758.806641" xlink:href="#DejaVuSans-20"/>
     <use x="1790.59375" xlink:href="#DejaVuSans-6c"/>
     <use x="1818.376953" xlink:href="#DejaVuSans-65"/>
     <use x="1879.900391" xlink:href="#DejaVuSans-76"/>
     <use x="1939.080078" xlink:href="#DejaVuSans-65"/>
     <use x="2000.603516" xlink:href="#DejaVuSans-6c"/>
     <use x="2028.386719" xlink:href="#DejaVuSans-20"/>
     <use x="2060.173828" xlink:href="#DejaVuSans-52"/>
     <use x="2129.59375" xlink:href="#DejaVuSans-65"/>
     <use x="2191.117188" xlink:href="#DejaVuSans-73"/>
     <use x="2243.216797" xlink:href="#DejaVuSans-65"/>
     <use x="2304.740234" xlink:href="#DejaVuSans-61"/>
     <use x="2366.019531" xlink:href="#DejaVuSans-72"/>
     <use x="2407.101562" xlink:href="#DejaVuSans-63"/>
     <use x="2462.082031" xlink:href="#DejaVuSans-68"/>
     <use x="2525.460938" xlink:href="#DejaVuSans-20"/>
     <use x="2557.248047" xlink:href="#DejaVuSans-67"/>
     <use x="2620.724609" xlink:href="#DejaVuSans-72"/>
     <use x="2661.806641" xlink:href="#DejaVuSans-6f"/>
     <use x="2722.988281" xlink:href="#DejaVuSans-75"/>
     <use x="2786.367188" xlink:href="#DejaVuSans-70"/>
    </g>
   </g>
  </g>
 </g>
 <defs>
  <clipPath id="pa7140f76d9">
   <rect height="266.112" width="357.12" x="57.6" y="41.472"/>
  </clipPath>
 </defs>
</svg>
